<?xml version="1.0" encoding="UTF-8" standalone="no"?>
<!DOCTYPE svg PUBLIC "-//W3C//DTD SVG 1.1//EN" "http://www.w3.org/Graphics/SVG/1.1/DTD/svg11.dtd">
<svg width="100%" height="100%" viewBox="0 0 200 200" version="1.1" xmlns="http://www.w3.org/2000/svg" xmlns:xlink="http://www.w3.org/1999/xlink" xml:space="preserve" xmlns:serif="http://www.serif.com/" style="fill-rule:evenodd;clip-rule:evenodd;stroke-linecap:round;stroke-miterlimit:1.5;">
    <g id="Layer1">
        <g>
            <ellipse cx="80.657" cy="133.956" rx="12.097" ry="12.226"/>
            <circle cx="112.326" cy="156.566" r="4.672"/>
            <circle cx="112.326" cy="144.66" r="4.672"/>
            <g>
                <path d="M93.683,119.124C93.618,118.21 93.586,117.268 93.586,116.299C93.586,108.974 95.229,103.163 98.514,98.868C101.8,94.572 106.186,92.424 111.673,92.424C117.159,92.424 121.545,93.969 124.831,97.059C128.116,100.149 129.759,104.332 129.759,109.607L129.759,112.727C129.759,115.41 129.202,117.271 128.086,118.311C126.971,119.351 124.966,119.871 122.072,119.871L101.634,119.871C101.634,120.052 101.642,120.293 101.657,120.594C101.672,120.896 101.763,121.476 101.928,122.335C102.094,123.194 102.313,124.016 102.584,124.8C102.855,125.583 103.3,126.458 103.918,127.422C104.536,128.387 105.259,129.216 106.088,129.909C106.917,130.602 108.01,131.183 109.366,131.65C110.723,132.117 112.23,132.351 113.888,132.351L126.142,132.351L126.142,139.088C123.007,139.57 118.922,139.812 113.888,139.812C108.912,139.812 104.767,138.487 101.452,135.839C100.982,140.206 99.146,143.734 95.943,146.422C92.19,149.572 87.073,151.147 80.592,151.147L74.805,151.147L74.805,160.289L63.229,160.17L63.229,127.996C63.229,123.836 64.216,120.867 66.191,119.088C68.165,117.31 71.037,116.421 74.805,116.421L82.039,116.421C86.666,116.421 90.547,117.321 93.683,119.124Z" style="fill-rule:nonzero;"/>
                <path d="M147.924,110.944C152.215,111.399 147.898,119.886 146.85,119.552C146.034,119.292 145.113,119.163 144.084,119.163C142.757,119.163 141.491,119.283 140.286,119.524C139.08,119.766 138.206,120.007 137.663,120.248L136.849,120.564L136.849,157.778L125.274,157.778L125.274,115.455C125.455,115.334 125.733,115.168 126.11,114.957C126.487,114.746 127.301,114.37 128.552,113.827C129.803,113.284 131.107,112.802 132.463,112.38C133.82,111.958 135.553,111.581 137.663,111.25C139.773,110.918 141.913,110.752 144.084,110.752C145.435,110.752 146.715,110.816 147.924,110.944Z" style="fill-rule:nonzero;"/>
            </g>
        </g>
        <path d="M148,76.672L117.782,47L54.678,47C53.752,47 53,47.752 53,48.678L53,158.322C53,159.248 53.752,160 54.678,160L146.322,160C147.248,160 148,159.248 148,158.322L148,76.672Z" style="fill:none;stroke:#000;stroke-width:7px;"/>
        <path d="M114.253,47L114.253,81L149,81" style="fill:none;stroke:#000;stroke-width:7px;stroke-linecap:butt;"/>
    </g>
</svg>
