<?xml version="1.0" encoding="UTF-8" standalone="no"?>
<!DOCTYPE svg PUBLIC "-//W3C//DTD SVG 1.1//EN" "http://www.w3.org/Graphics/SVG/1.1/DTD/svg11.dtd">
<svg width="100%" height="100%" viewBox="0 0 103 121" version="1.1" xmlns="http://www.w3.org/2000/svg" xmlns:xlink="http://www.w3.org/1999/xlink" xml:space="preserve" xmlns:serif="http://www.serif.com/" style="fill-rule:evenodd;clip-rule:evenodd;stroke-linecap:round;stroke-miterlimit:1.5;">
    <g transform="matrix(1,0,0,1,-49,-43)">
        <g id="icon--p-only-" serif:id="icon (p only)">
            <g transform="matrix(1.42406,0,0,1.3215,-77.7004,-661.108)">
                <path d="M113.07,568.694L120.57,568.694C126.82,568.694 131.758,570.28 135.383,573.452C139.008,576.624 140.82,580.944 140.82,586.413C140.82,592.069 138.875,596.53 134.984,599.796C131.094,603.062 125.789,604.694 119.07,604.694L113.07,604.694L113.07,621.572L101.07,621.572L101.07,580.694C101.07,576.382 102.094,573.304 104.14,571.46C106.187,569.616 109.164,568.694 113.07,568.694ZM120.57,577.413C115.57,577.413 113.07,578.507 113.07,580.694L113.07,595.976L119.07,595.976C122.101,595.976 124.484,595.124 126.219,593.421C127.953,591.718 128.82,589.382 128.82,586.413C128.82,583.632 128.086,581.437 126.617,579.827C125.148,578.218 123.133,577.413 120.57,577.413Z" style="fill-rule:nonzero;"/>
            </g>
            <g transform="matrix(0.650685,0,0,0.71519,41.2877,26.2595)">
                <path d="M164,70.489L117.56,29L20.579,29C19.156,29 18,30.051 18,31.346L18,184.654C18,185.949 19.156,187 20.579,187L161.421,187C162.844,187 164,185.949 164,184.654L164,70.489Z" style="fill:none;stroke:black;stroke-width:10.24px;"/>
            </g>
            <g transform="matrix(1,0,0,1,1,0)">
                <path d="M113.253,47L113.253,81L148,81" style="fill:none;stroke:black;stroke-width:7px;stroke-linecap:butt;"/>
            </g>
        </g>
    </g>
</svg>
